<svg width="1440" height="1024" viewBox="0 0 1440 1024" fill="none" xmlns="http://www.w3.org/2000/svg">
<g opacity="0.22">
<path d="M421.416 396.249C396.723 451.881 391.696 505.334 410.104 552.539C474.405 717.477 796.878 734.526 1144.24 591.355C1491.59 448.184 1713.35 206.81 1649.05 41.8829C1616.58 -41.3917 1519.46 -89.6568 1375.56 -94.0044C1240.31 -98.0984 1076.72 -63.6141 914.911 3.07747C666.958 105.273 482.997 257.51 421.416 396.249ZM1586.53 171.852C1535.56 286.684 1371.99 431.345 1122.02 534.369C782.71 674.216 506.969 645.541 462.32 531.011C417.669 416.519 597.782 199.92 937.127 60.0579C1092.3 -3.89559 1248.26 -36.9829 1376.28 -33.1231C1493.92 -29.5559 1574.3 5.61649 1596.83 63.4082C1608.59 93.5618 1604.75 130.811 1586.53 171.851L1586.53 171.852Z" fill="#FCDC69"/>
<path d="M163.95 390.376C106.246 399.001 61.278 423.562 34.3644 465.135C-59.6819 610.378 107.522 900.247 415.014 1125.04C722.507 1349.84 1037.08 1412.17 1131.12 1266.92C1178.6 1193.59 1162.25 1082.94 1085.07 955.356C1012.53 835.437 893.696 711.741 750.455 607.02C530.963 446.554 307.855 368.867 163.95 390.376ZM993.603 1282.88C874.495 1300.68 668.786 1236.64 447.506 1074.86C147.145 855.27 15.2879 599.778 80.5926 498.924C145.866 398.088 417.572 437.586 717.967 657.199C855.325 757.619 968.787 875.438 1037.46 988.946C1100.55 1093.25 1117.84 1182.24 1084.89 1233.13C1067.7 1259.69 1036.17 1276.51 993.604 1282.87L993.603 1282.88Z" fill="#FCDC69"/>
<path d="M1148.72 181.866C1253.65 181.866 1338.71 89.3003 1338.71 -24.8849C1338.71 -139.07 1253.65 -231.635 1148.72 -231.635C1043.79 -231.635 958.727 -139.07 958.727 -24.8849C958.727 89.3003 1043.79 181.866 1148.72 181.866Z" fill="#FCDC69"/>
<path d="M241.465 257.047C306.58 257.047 359.366 199.606 359.366 128.748C359.366 57.8897 306.58 0.447998 241.465 0.447998C176.351 0.447998 123.565 57.8897 123.565 128.748C123.565 199.606 176.351 257.047 241.465 257.047Z" fill="#FCDC69"/>
<path d="M585.012 1148.61C676.463 1148.61 750.598 1067.93 750.598 968.414C750.598 868.898 676.463 788.223 585.012 788.223C493.562 788.223 419.426 868.898 419.426 968.414C419.426 1067.93 493.562 1148.61 585.012 1148.61Z" fill="#FCDC69"/>
</g>
</svg>
