<svg width="2275" height="5091" viewBox="0 0 2275 5091" fill="none" xmlns="http://www.w3.org/2000/svg">
<g opacity="0.22">
<path d="M768.607 3950.55C738.938 4011.44 732.145 4069.42 752.676 4119.97C824.394 4296.6 1198.55 4305.85 1604.48 4141.04C2010.4 3976.23 2272.23 3708.75 2200.5 3532.13C2164.3 3442.96 2052.38 3393.5 1885.35 3392.9C1728.37 3392.33 1537.8 3434.3 1348.7 3511.07C1058.94 3628.71 842.599 3798.68 768.607 3950.55ZM2125.59 3674.54C2064.34 3800.24 1871.82 3961.42 1579.7 4080.02C1183.18 4241 863.495 4217.84 813.696 4095.19C763.893 3972.58 976.92 3733.09 1373.48 3572.09C1554.81 3498.47 1736.51 3458.23 1885.11 3458.75C2021.64 3459.26 2114.36 3495.02 2139.48 3556.91C2152.6 3589.2 2147.47 3629.61 2125.59 3674.54L2125.59 3674.54Z" fill="#FCD95B"/>
<path d="M464.827 3910.53C397.594 3918.78 345.259 3944.64 314.027 3989.38C204.891 4145.67 400.771 4464.58 759.96 4715.4C1119.15 4966.22 1486.04 5040.28 1595.17 4883.99C1650.27 4805.08 1630.84 4684.28 1540.44 4543.83C1455.48 4411.83 1316.54 4274.81 1149.22 4157.96C892.827 3978.92 632.498 3889.94 464.827 3910.53ZM1434.93 4898.65C1296.15 4915.69 1056.15 4841.91 797.664 4661.4C446.806 4416.39 292.244 4135.6 368.027 4027.08C443.774 3918.57 760.622 3966.92 1111.52 4211.96C1271.97 4324.01 1404.63 4454.53 1485.06 4579.47C1558.95 4694.28 1579.41 4791.52 1541.17 4846.29C1521.22 4874.86 1484.53 4892.56 1434.93 4898.65L1434.93 4898.65Z" fill="#FCD95B"/>
<path d="M509.568 2370.77C442.335 2379.02 390 2404.88 358.768 2449.62C249.632 2605.91 445.512 2924.83 804.701 3175.65C1163.89 3426.47 1530.78 3500.53 1639.91 3344.23C1695.01 3265.32 1675.58 3144.52 1585.18 3004.08C1500.22 2872.07 1361.28 2735.05 1193.96 2618.21C937.568 2439.16 677.239 2350.18 509.568 2370.77ZM1479.67 3358.89C1340.89 3375.93 1100.89 3302.15 842.405 3121.65C491.547 2876.63 336.985 2595.85 412.768 2487.32C488.515 2378.81 805.363 2427.17 1156.26 2672.2C1316.71 2784.25 1449.37 2914.77 1529.8 3039.71C1603.69 3154.52 1624.15 3251.77 1585.91 3306.53C1565.96 3335.11 1529.27 3352.8 1479.67 3358.89L1479.67 3358.89Z" fill="#FCD95B"/>
<path d="M1615.78 3702.22C1738.36 3702.22 1837.73 3602.85 1837.73 3480.27C1837.73 3357.69 1738.36 3258.32 1615.78 3258.32C1493.2 3258.32 1393.83 3357.69 1393.83 3480.27C1393.83 3602.85 1493.2 3702.22 1615.78 3702.22Z" fill="#FCD95B"/>
<path d="M555.913 3782.93C631.981 3782.93 693.646 3721.26 693.646 3645.2C693.646 3569.13 631.981 3507.46 555.913 3507.46C479.845 3507.46 418.18 3569.13 418.18 3645.2C418.18 3721.26 479.845 3782.93 555.913 3782.93Z" fill="#FCD95B"/>
<path d="M957.25 4740.04C1064.08 4740.04 1150.69 4653.43 1150.69 4546.6C1150.69 4439.77 1064.08 4353.16 957.25 4353.16C850.416 4353.16 763.81 4439.77 763.81 4546.6C763.81 4653.43 850.416 4740.04 957.25 4740.04Z" fill="#FCD95B"/>
</g>
<g opacity="0.22">
<path d="M1505.96 1707.98C1535.63 1768.87 1542.42 1826.85 1521.89 1877.4C1450.17 2054.03 1076.01 2063.29 670.092 1898.47C264.174 1733.66 2.33568 1466.18 74.0593 1289.57C110.267 1200.39 222.186 1150.93 389.212 1150.33C546.189 1149.76 736.768 1191.73 925.864 1268.5C1215.62 1386.14 1431.96 1556.11 1505.96 1707.98ZM148.976 1431.97C210.218 1557.67 402.746 1718.85 694.867 1837.45C1091.38 1998.44 1411.07 1975.27 1460.87 1852.62C1510.67 1730.02 1297.64 1490.52 901.084 1329.52C719.754 1255.9 538.055 1215.66 389.455 1216.18C252.923 1216.69 160.206 1252.46 135.08 1314.34C121.963 1346.63 127.089 1387.05 148.976 1431.97Z" fill="#FCD95B"/>
<path d="M1809.5 1667.53C1876.73 1675.78 1929.06 1701.64 1960.3 1746.38C2069.43 1902.67 1873.55 2221.58 1514.36 2472.4C1155.18 2723.21 788.281 2797.28 679.158 2640.99C624.056 2562.08 643.484 2441.28 733.887 2300.83C818.845 2168.84 957.781 2031.81 1125.1 1914.96C1381.5 1735.92 1641.83 1646.94 1809.5 1667.53ZM839.395 2655.65C978.175 2672.69 1218.18 2598.91 1476.66 2418.4C1827.52 2173.4 1982.08 1892.6 1906.3 1784.08C1830.55 1675.57 1513.7 1723.92 1162.8 1968.96C1002.35 2081.01 869.698 2211.53 789.261 2336.47C715.376 2451.28 694.915 2548.52 733.157 2603.29C753.105 2631.86 789.796 2649.56 839.395 2655.65Z" fill="#FCD95B"/>
<path d="M1764.76 127.769C1831.99 136.024 1884.32 161.882 1915.56 206.618C2024.69 362.915 1828.81 681.828 1469.62 932.642C1110.44 1183.46 743.54 1257.53 634.417 1101.23C579.315 1022.32 598.743 901.519 689.146 761.075C774.104 629.079 913.039 492.05 1080.36 375.204C1336.76 196.16 1597.08 107.181 1764.76 127.769ZM794.654 1115.89C933.433 1132.93 1173.43 1059.15 1431.92 878.646C1782.78 633.639 1937.34 352.847 1861.56 244.319C1785.81 135.809 1468.96 184.166 1118.06 429.203C957.612 541.249 824.957 671.769 744.52 796.713C670.635 911.524 650.174 1008.77 688.415 1063.53C708.364 1092.11 745.055 1109.8 794.654 1115.89Z" fill="#FCD95B"/>
<path d="M658.544 1459.22C781.125 1459.22 880.496 1359.85 880.496 1237.27C880.496 1114.69 781.125 1015.32 658.544 1015.32C535.963 1015.32 436.592 1114.69 436.592 1237.27C436.592 1359.85 535.963 1459.22 658.544 1459.22Z" fill="#FCD95B"/>
<path d="M1718.41 1539.93C1794.48 1539.93 1856.14 1478.27 1856.14 1402.2C1856.14 1326.13 1794.48 1264.46 1718.41 1264.46C1642.34 1264.46 1580.68 1326.13 1580.68 1402.2C1580.68 1478.27 1642.34 1539.93 1718.41 1539.93Z" fill="#FCD95B"/>
<path d="M1317.07 2497.04C1423.91 2497.04 1510.51 2410.44 1510.51 2303.6C1510.51 2196.77 1423.91 2110.16 1317.07 2110.16C1210.24 2110.16 1123.63 2196.77 1123.63 2303.6C1123.63 2410.44 1210.24 2497.04 1317.07 2497.04Z" fill="#FCD95B"/>
</g>
</svg>
