<svg width="18" height="20" viewBox="0 0 18 20" fill="none" xmlns="http://www.w3.org/2000/svg">
<path d="M16.5 1.50001L15 7.62939e-06L13.5 1.50001L12 7.62939e-06L10.5 1.50001L9 7.62939e-06L7.5 1.50001L6 7.62939e-06L4.5 1.50001L3 7.62939e-06L1.5 1.50001L0 7.62939e-06V20L1.5 18.5L3 20L4.5 18.5L6 20L7.5 18.5L9 20L10.5 18.5L12 20L13.5 18.5L15 20L16.5 18.5L18 20V7.62939e-06L16.5 1.50001ZM16 17.09H2V2.91001H16V17.09ZM3 13H15V15H3V13ZM3 9.00001H15V11H3V9.00001ZM3 5.00001H15V7.00001H3V5.00001Z" fill="black"/>
</svg>
