<svg width="24" height="24" viewBox="0 0 24 24" fill="none" xmlns="http://www.w3.org/2000/svg">
<path fill-rule="evenodd" clip-rule="evenodd" d="M6.44064 6.14737C6.93744 6.14737 7.34064 6.58382 7.34064 7.12158C7.34064 7.65935 6.93744 8.0958 6.44064 8.0958H5.31144C3.37464 8.0958 1.80024 9.79871 1.80024 11.8939V18.2393C1.80024 20.3423 3.37944 22.0517 5.32224 22.0517H18.6902C20.6246 22.0517 22.2002 20.3462 22.2002 18.2523V11.9082C22.2002 9.80521 20.6198 8.0958 18.6794 8.0958H17.561C17.0642 8.0958 16.661 7.65935 16.661 7.12158C16.661 6.58382 17.0642 6.14737 17.561 6.14737H18.6794C21.6134 6.14737 24.0002 8.73228 24.0002 11.9082V18.2523C24.0002 21.4217 21.617 24.0001 18.6902 24.0001H5.32224C2.38824 24.0001 0.000244141 21.4165 0.000244141 18.2393V11.8939C0.000244141 8.72449 2.38224 6.14737 5.31144 6.14737H6.44064ZM12.0012 0.000106812C12.498 0.000106812 12.9012 0.436553 12.9012 0.974317L12.9002 14.2574L14.8632 12.1245C15.2136 11.7426 15.7824 11.7426 16.1352 12.1219C16.4868 12.5012 16.488 13.1182 16.1376 13.5001L12.6465 17.2938C12.6124 17.3318 12.5755 17.3668 12.5361 17.3983L12.6384 17.3021C12.5998 17.3445 12.5578 17.3826 12.5132 17.4161C12.486 17.4365 12.4584 17.4549 12.4298 17.4717C12.416 17.4798 12.4015 17.4878 12.3869 17.4953C12.3607 17.5088 12.3338 17.5209 12.3064 17.5317C12.2926 17.5369 12.2788 17.5419 12.2649 17.5465C12.2311 17.5578 12.1964 17.567 12.1609 17.5738C12.1529 17.5753 12.1456 17.5766 12.1383 17.5778C12.1097 17.5827 12.0799 17.586 12.0496 17.5878C12.0333 17.5887 12.0173 17.5891 12.0012 17.5891L11.9534 17.5853L11.8791 17.5803C11.8738 17.5795 11.8686 17.5786 11.8633 17.5778L12.0012 17.5891C11.9476 17.5891 11.8944 17.584 11.8422 17.5739C11.8061 17.567 11.7714 17.5579 11.7376 17.5466C11.7241 17.542 11.7108 17.5373 11.6977 17.5322C11.6701 17.5216 11.6428 17.5093 11.6163 17.4957C11.6002 17.4875 11.5842 17.4786 11.5684 17.4692C11.5463 17.456 11.5249 17.442 11.5041 17.4271C11.4899 17.4169 11.4757 17.406 11.4617 17.3946C11.4274 17.3668 11.3951 17.3364 11.3649 17.3037L11.364 17.3021L7.8648 13.5001C7.5144 13.1182 7.5156 12.5012 7.86721 12.1219C8.22001 11.7426 8.78881 11.7426 9.1392 12.1245L11.1002 14.2574L11.1012 0.974317C11.1012 0.436553 11.5044 0.000106812 12.0012 0.000106812Z" fill="#333333"/>
</svg>
