<svg width="24" height="24" viewBox="0 0 24 24" fill="none" xmlns="http://www.w3.org/2000/svg">
<path fill-rule="evenodd" clip-rule="evenodd" d="M7.48733 8.60993C7.89067 8.60993 8.21802 8.93728 8.21802 9.34062C8.21802 9.74396 7.89067 10.0713 7.48733 10.0713H6.57836C5.00105 10.0713 3.71894 11.3534 3.71894 12.9298V17.6792C3.71894 19.2565 5.00105 20.5386 6.57836 20.5386H17.4217C18.9981 20.5386 20.2812 19.2565 20.2812 17.6792V12.921C20.2812 11.3495 19.0029 10.0713 17.4325 10.0713H16.5137C16.1104 10.0713 15.7831 9.74396 15.7831 9.34062C15.7831 8.93728 16.1104 8.60993 16.5137 8.60993H17.4325C19.8087 8.60993 21.7425 10.5438 21.7425 12.921V17.6792C21.7425 20.0622 19.8038 22 17.4217 22H6.57836C4.19632 22 2.25757 20.0622 2.25757 17.6792V12.9298C2.25757 10.5477 4.19632 8.60993 6.57836 8.60993H7.48733ZM12.517 2.20678L15.3579 5.05938C15.6424 5.34581 15.6414 5.80761 15.3559 6.09209C15.0695 6.37657 14.6077 6.37657 14.3232 6.09014L12.7298 4.49115L12.7303 15.1831H11.269L11.2684 4.49115L9.67705 6.09014C9.53481 6.23433 9.34678 6.30545 9.15973 6.30545C8.97365 6.30545 8.78659 6.23433 8.64435 6.09209C8.3589 5.80761 8.35695 5.34581 8.6424 5.05938L11.4823 2.20678C11.7561 1.93107 12.2432 1.93107 12.517 2.20678Z" fill="#333333"/>
</svg>
