<svg width="20" height="20" viewBox="0 0 20 20" fill="none" xmlns="http://www.w3.org/2000/svg">
<path fill-rule="evenodd" clip-rule="evenodd" d="M14.3591 0C17.733 0 20 2.36837 20 5.89302V14.107C20 17.6316 17.733 20 14.3591 20H5.64093C2.26698 20 0 17.6316 0 14.107V5.89302C0 2.36837 2.26698 0 5.64093 0H14.3591ZM14.3591 1.39535H5.64093C3.06233 1.39535 1.39535 3.16 1.39535 5.89302V14.107C1.39535 16.84 3.06233 18.6047 5.64093 18.6047H14.3591C16.9386 18.6047 18.6047 16.84 18.6047 14.107V5.89302C18.6047 3.16 16.9386 1.39535 14.3591 1.39535ZM10 5.88586C10.3851 5.88586 10.6977 6.19842 10.6977 6.58354V9.29302L13.4107 9.29321C13.7958 9.29321 14.1084 9.60577 14.1084 9.99088C14.1084 10.376 13.7958 10.6886 13.4107 10.6886L10.6977 10.6884V13.3993C10.6977 13.7845 10.3851 14.097 10 14.097C9.61488 14.097 9.30233 13.7845 9.30233 13.3993V10.6884L6.5893 10.6886C6.20326 10.6886 5.89163 10.376 5.89163 9.99088C5.89163 9.60577 6.20326 9.29321 6.5893 9.29321L9.30233 9.29302V6.58354C9.30233 6.19842 9.61488 5.88586 10 5.88586Z" fill="#0D0D0D"/>
</svg>
