<svg width="18" height="18" viewBox="0 0 18 18" fill="none" xmlns="http://www.w3.org/2000/svg">
<path fill-rule="evenodd" clip-rule="evenodd" d="M12.9006 0C15.9507 0 18 2.1402 18 5.3244V12.6756C18 15.8598 15.9507 18 12.8997 18H5.0985C2.0484 18 0 15.8598 0 12.6756V5.3244C0 2.1402 2.0484 0 5.0985 0H12.9006ZM12.9006 1.35H5.0985C2.8215 1.35 1.35 2.9097 1.35 5.3244V12.6756C1.35 15.0903 2.8215 16.65 5.0985 16.65H12.8997C15.1776 16.65 16.65 15.0903 16.65 12.6756V5.3244C16.65 2.9097 15.1776 1.35 12.9006 1.35ZM7.31745 6.35634L8.9982 8.037L10.6781 6.35823C10.9417 6.09453 11.3684 6.09453 11.6321 6.35823C11.8958 6.62193 11.8958 7.04853 11.6321 7.31223L9.9522 8.991L11.6339 10.6736C11.8975 10.9373 11.8975 11.3639 11.6339 11.6276C11.5024 11.7599 11.3287 11.8256 11.1568 11.8256C10.984 11.8256 10.8112 11.7599 10.6798 11.6276L8.9982 9.945L7.31925 11.625C7.18785 11.7573 7.01505 11.823 6.84225 11.823C6.66945 11.823 6.49665 11.7573 6.36525 11.625C6.10155 11.3613 6.10155 10.9347 6.36525 10.671L8.0442 8.991L6.36345 7.31034C6.09975 7.04664 6.09975 6.62004 6.36345 6.35634C6.62805 6.09264 7.05465 6.09264 7.31745 6.35634Z" fill="#333333"/>
</svg>
