<svg width="20" height="20" xmlns="http://www.w3.org/2000/svg" fill="none">

 <g>
  <title>Layer 1</title>
  <path id="svg_1" fill="#0D0D0D" d="m14.3591,0c3.3739,0 5.6409,2.36837 5.6409,5.89302l0,8.21398c0,3.5246 -2.267,5.893 -5.6409,5.893l-8.71817,0c-3.37395,0 -5.64093,-2.3684 -5.64093,-5.893l0,-8.21398c0,-3.52465 2.26698,-5.89302 5.64093,-5.89302l8.71817,0zm0,1.39535l-8.71817,0c-2.5786,0 -4.24558,1.76465 -4.24558,4.49767l0,8.21398c0,2.733 1.66698,4.4977 4.24558,4.4977l8.71817,0c2.5795,0 4.2456,-1.7647 4.2456,-4.4977l0,-8.21398c0,-2.73302 -1.6661,-4.49767 -4.2456,-4.49767zm-3.6614,7.89767l2.713,0.00019c0.3851,0 0.6977,0.31256 0.6977,0.69767c0,0.38512 -0.3126,0.69772 -0.6977,0.69772l-2.713,-0.0002l-1.39537,0l-2.71303,0.0002c-0.38604,0 -0.69767,-0.3126 -0.69767,-0.69772c0,-0.38511 0.31163,-0.69767 0.69767,-0.69767l2.71303,-0.00019l1.39537,0z" clip-rule="evenodd" fill-rule="evenodd"/>
 </g>
</svg>
