<svg width="20" height="20" viewBox="0 0 20 20" fill="none" xmlns="http://www.w3.org/2000/svg">
<path fill-rule="evenodd" clip-rule="evenodd" d="M9.62002 0C14.803 0 19.0189 4.21587 19.0189 9.39884C19.0189 11.8441 18.0804 14.0744 16.5448 15.7482L19.5665 18.7636C19.8493 19.0464 19.8503 19.5039 19.5675 19.7867C19.4266 19.9295 19.2403 20 19.055 20C18.8706 20 18.6853 19.9295 18.5434 19.7886L15.4852 16.739C13.8765 18.0273 11.8367 18.7986 9.62002 18.7986C4.43705 18.7986 0.220215 14.5818 0.220215 9.39884C0.220215 4.21587 4.43705 0 9.62002 0ZM9.62002 1.44776C5.23525 1.44776 1.66797 5.01407 1.66797 9.39884C1.66797 13.7836 5.23525 17.3509 9.62002 17.3509C14.0038 17.3509 17.5711 13.7836 17.5711 9.39884C17.5711 5.01407 14.0038 1.44776 9.62002 1.44776Z" fill="#333333"/>
</svg>
